<svg xmlns="http://www.w3.org/2000/svg" viewBox="0 0 64 64" width="64" height="64" role="img" aria-labelledby="titleRitual">
  <title id="titleRitual">Ritual icon (bowl with flame)</title>
  <ellipse cx="32" cy="44" rx="20" ry="8" fill="#8b5a2b" />
  <path d="M14 44c2 6 10 10 18 10s16-4 18-10" fill="#6b4424" />
  <path d="M32 22c-4 6-2 10 0 14 2-4 4-8 2-12-1.5-2.5-2.5-3-2-2z" fill="#ff9a3c"/>
  <path d="M33 19c-3 4-2 7 0 10 1-3 2-6 1-9-0.6-1.5-1-2-1-1z" fill="#ffd27a" opacity="0.9"/>
  <rect x="18" y="46" width="28" height="3" fill="#5a3b20" opacity="0.9"/>
</svg>